<svg xmlns="http://www.w3.org/2000/svg" viewBox="0 0 64 64">
  <rect width="64" height="64" rx="14" fill="#c1121f"/>
  <path d="M0 21h64v22H0z" fill="#f6c945"/>
  <circle cx="32" cy="32" r="19" fill="#fff7ed"/>
  <path d="M20 41V24h6.5c4.3 0 7.2 2.4 7.2 6.1 0 3.8-2.9 6.2-7.2 6.2H24v4.7h-4zm4-8h2.2c2.2 0 3.4-1 3.4-2.9 0-1.8-1.2-2.8-3.4-2.8H24V33z" fill="#0c8f8b"/>
  <path d="M36.6 41V28.2h3.7v1.6c.8-1.1 2.1-1.9 3.9-1.9 3 0 5 2.1 5 5.5V41h-3.8v-7c0-1.7-.9-2.7-2.4-2.7s-2.6 1-2.6 2.8V41h-3.8z" fill="#0c8f8b"/>
  <path d="M38.2 24.8c.7-2 2-3 3.6-3 .8 0 1.4.2 2 .5.5.2.9.4 1.2.4.6 0 .9-.3 1.2-1h2.1c-.7 2-2 3-3.6 3-.8 0-1.4-.2-2-.5-.5-.2-.9-.4-1.2-.4-.6 0-.9.3-1.2 1h-2.1z" fill="#0c8f8b"/>
</svg>

